<svg xmlns="http://www.w3.org/2000/svg" width="50" height="50" viewBox="0 0 13.229 13.229"><circle cx="6.615" cy="6.615" r="6.615" fill="#0b4796"/><path d="M10.194 4.374h-.538v-.552a.256.256 0 00-.22-.252 3.993 3.993 0 00-1.177.035c-.703.127-1.264.44-1.644.912-.38-.473-.942-.785-1.645-.912a3.994 3.994 0 00-1.177-.035.256.256 0 00-.22.252v.552h-.537a.256.256 0 00-.258.254v4.803c0 .083.04.16.108.208a.26.26 0 00.234.033c.02-.006 1.949-.658 3.388-.009a.26.26 0 00.213 0c1.435-.647 3.369.003 3.388.01a.26.26 0 00.234-.034.254.254 0 00.108-.207V4.628a.256.256 0 00-.257-.254zm-6.9 4.716V4.883h.28v3.395c0 .074.032.144.089.193a.26.26 0 00.206.059c.014-.002 1.132-.154 1.95.4-1.007-.17-2.015.028-2.526.16zm3.063-.389c-.36-.322-.829-.54-1.387-.64A4.08 4.08 0 004.088 8V4.056c.495-.022 1.7.03 2.27.987zm.515-3.658c.568-.952 1.774-1.007 2.269-.986v3.944a4.122 4.122 0 00-.882.06c-.558.1-1.027.318-1.387.64zm.538 3.888c.817-.555 1.936-.403 1.95-.401a.26.26 0 00.206-.06.254.254 0 00.09-.192V4.883h.28V9.09c-.511-.133-1.52-.33-2.526-.159z" data-original="#000000" class="active-path" data-old_color="#000000" fill="#fff"/></svg>