<svg xmlns="http://www.w3.org/2000/svg" width="50" height="50" viewBox="0 0 13.229 13.229"><circle cx="6.615" cy="6.615" r="6.615" fill="#0b4796"/><g fill="#fff"><path d="M6.615 4.295a.69.69 0 00.697-.684.69.69 0 00-.697-.683.69.69 0 00-.698.683.69.69 0 00.698.684zm0-1.026c.192 0 .348.153.348.342a.345.345 0 01-.348.342.345.345 0 01-.35-.342c0-.189.157-.342.35-.342zM6.868 4.406H6.37a.942.942 0 00-.976.905V5.457c0 .094.096.145.192.145h2.057c.096 0 .192-.051.192-.145V5.32a.942.942 0 00-.967-.914zM5.76 5.26c.018-.256.288-.512.61-.512h.489c.322 0 .593.256.61.512zM3.78 7.268a.173.173 0 00.175-.17c0-.791.365-1.54.994-2.034a.168.168 0 00.003-.242.177.177 0 00-.22-.023 2.917 2.917 0 00-1.126 2.298c0 .095.079.171.175.171zM7.464 9.565a2.702 2.702 0 01-1.687.001.175.175 0 00-.217.112.161.161 0 00.104.213 3.04 3.04 0 001.91 0 .179.179 0 00.113-.222.175.175 0 00-.223-.104zM8.15 4.97a2.582 2.582 0 011.124 2.127c0 .095.078.171.174.171a.173.173 0 00.175-.17 2.947 2.947 0 00-1.273-2.41.178.178 0 00-.244.042.17.17 0 00.043.24zM3.999 8.994a.69.69 0 00.697-.683A.69.69 0 004 7.627a.69.69 0 00-.698.684.69.69 0 00.698.683zm0-1.025c.192 0 .349.153.349.342a.345.345 0 01-.35.341.345.345 0 01-.348-.341c0-.19.156-.342.349-.342zM4.252 9.105h-.497a.942.942 0 00-.977.906V10.156c0 .094.096.146.192.146h2.058c.096 0 .192-.052.192-.146v-.136a.942.942 0 00-.968-.915zm-1.108.855c.018-.257.288-.513.61-.513h.489c.323 0 .593.256.61.513zM8.533 8.31a.69.69 0 00.697.684.69.69 0 00.698-.683.69.69 0 00-.698-.684.69.69 0 00-.697.684zm1.046 0a.345.345 0 01-.349.342.345.345 0 01-.348-.341c0-.19.156-.342.348-.342.193 0 .35.153.35.342zM9.484 9.105h-.498a.942.942 0 00-.976.906V10.156c0 .094.096.146.191.146h2.058c.096 0 .192-.052.192-.146v-.136a.942.942 0 00-.967-.915zm-1.108.855c.017-.257.288-.513.61-.513h.488c.323 0 .593.256.61.513z" data-original="#000000" class="active-path" data-old_color="#000000"/></g></svg>