<?xml version="1.0" encoding="UTF-8" standalone="no"?>
<svg
   xmlns:dc="http://purl.org/dc/elements/1.1/"
   xmlns:cc="http://creativecommons.org/ns#"
   xmlns:rdf="http://www.w3.org/1999/02/22-rdf-syntax-ns#"
   xmlns:svg="http://www.w3.org/2000/svg"
   xmlns="http://www.w3.org/2000/svg"
   xmlns:sodipodi="http://sodipodi.sourceforge.net/DTD/sodipodi-0.dtd"
   xmlns:inkscape="http://www.inkscape.org/namespaces/inkscape"
   sodipodi:docname="circle.svg"
   inkscape:version="1.0 (4035a4fb49, 2020-05-01)"
   id="svg8"
   version="1.1"
   viewBox="0 0 13.229167 13.229167"
   height="50"
   width="50">
  <defs
     id="defs2" />
  <sodipodi:namedview
     inkscape:window-maximized="1"
     inkscape:window-y="-8"
     inkscape:window-x="1358"
     inkscape:window-height="697"
     inkscape:window-width="1280"
     units="px"
     showgrid="false"
     inkscape:document-rotation="0"
     inkscape:current-layer="layer3"
     inkscape:document-units="px"
     inkscape:cy="19.989378"
     inkscape:cx="6.0433011"
     inkscape:zoom="1.0120195"
     inkscape:pageshadow="2"
     inkscape:pageopacity="0.0"
     borderopacity="1.0"
     bordercolor="#666666"
     pagecolor="#ffffff"
     id="base" />
  <metadata
     id="metadata5">
    <rdf:RDF>
      <cc:Work
         rdf:about="">
        <dc:format>image/svg+xml</dc:format>
        <dc:type
           rdf:resource="http://purl.org/dc/dcmitype/StillImage" />
        <dc:title />
      </cc:Work>
    </rdf:RDF>
  </metadata>
  <g
     inkscape:label="bckg"
     id="layer2"
     inkscape:groupmode="layer">
    <circle
       r="6.6145835"
       cy="6.6145835"
       cx="6.6145835"
       id="path57"
       style="fill:#28bcc3;fill-opacity:1;stroke-width:0.279257" />
  </g>
  <g
     inkscape:label="group"
     id="layer3"
     inkscape:groupmode="layer">
    <g
       style="fill:#ffffff"
       transform="matrix(0.01668911,0,0,0.01635476,2.778141,2.854984)"
       id="g951">
	<g
   style="fill:#ffffff"
   id="g949">
		<g
   style="fill:#ffffff"
   id="g947">
			<path
   style="fill:#ffffff"
   id="path929"
   fill="#ffffff"
   data-old_color="#000000"
   class="active-path"
   data-original="#000000"
   d="m 229.878,88.033 c 23.083,0 41.796,-18.713 41.796,-41.796 0,-23.083 -18.713,-41.796 -41.796,-41.796 -23.083,0 -41.796,18.713 -41.796,41.796 0,23.083 18.712,41.796 41.796,41.796 z m 0,-62.694 c 11.542,0 20.898,9.356 20.898,20.898 0,11.542 -9.356,20.898 -20.898,20.898 -11.542,0 -20.898,-9.356 -20.898,-20.898 0,-11.542 9.356,-20.898 20.898,-20.898 z" />

			<path
   style="fill:#ffffff"
   id="path931"
   fill="#ffffff"
   data-old_color="#000000"
   class="active-path"
   data-original="#000000"
   d="m 245.06,94.812 c -0.185,0.003 -0.369,0.008 -0.553,0.013 H 215.25 c -31.439,-0.871 -57.631,23.91 -58.502,55.349 -0.005,0.184 -0.009,0.369 -0.013,0.553 v 8.359 c 0,5.747 5.747,8.882 11.494,8.882 h 123.298 c 5.747,0 11.494,-3.135 11.494,-8.882 v -8.359 C 302.455,119.281 276.505,94.247 245.06,94.812 Z m -66.382,52.257 c 1.045,-15.673 17.241,-31.347 36.571,-31.347 h 29.257 c 19.331,0 35.527,15.673 36.571,31.347 z" />

			<path
   style="fill:#ffffff"
   id="path933"
   fill="#ffffff"
   data-old_color="#000000"
   class="active-path"
   data-original="#000000"
   d="m 60.082,269.845 c 5.771,0 10.449,-4.678 10.449,-10.449 -0.033,-48.336 21.875,-94.074 59.559,-124.343 4.134,-4.027 4.22,-10.642 0.193,-14.776 -3.503,-3.596 -9.069,-4.192 -13.254,-1.42 -42.667,34.161 -67.47,85.881 -67.396,140.539 0,5.771 4.678,10.449 10.449,10.449 z" />

			<path
   style="fill:#ffffff"
   id="path935"
   fill="#ffffff"
   data-old_color="#000000"
   class="active-path"
   data-original="#000000"
   d="m 280.8,410.293 c -0.082,0.029 -0.164,0.059 -0.245,0.09 -32.719,10.952 -68.114,10.952 -100.833,0 -5.48,-1.708 -11.312,1.325 -13.061,6.792 -1.985,5.11 0.549,10.862 5.659,12.847 0.201,0.078 0.404,0.15 0.61,0.214 37.108,12.541 77.309,12.541 114.416,0 5.538,-1.976 8.534,-7.967 6.792,-13.584 -1.926,-5.438 -7.898,-8.286 -13.338,-6.359 z" />

			<path
   style="fill:#ffffff"
   id="path937"
   fill="#ffffff"
   data-old_color="#000000"
   class="active-path"
   data-original="#000000"
   d="m 321.829,129.306 c 42.319,29.793 67.468,78.336 67.396,130.09 0,5.771 4.678,10.449 10.449,10.449 5.771,0 10.449,-4.678 10.449,-10.449 -0.145,-58.546 -28.554,-113.418 -76.278,-147.331 -4.761,-3.318 -11.31,-2.149 -14.629,2.612 -3.318,4.761 -2.148,11.311 2.613,14.629 z" />

			<path
   style="fill:#ffffff"
   id="path939"
   fill="#ffffff"
   data-old_color="#000000"
   class="active-path"
   data-original="#000000"
   d="m 73.143,375.38 c 23.083,0 41.796,-18.713 41.796,-41.796 0,-23.083 -18.713,-41.796 -41.796,-41.796 -23.083,0 -41.796,18.712 -41.796,41.796 0,23.084 18.713,41.796 41.796,41.796 z m 0,-62.694 c 11.542,0 20.898,9.356 20.898,20.898 0,11.542 -9.356,20.898 -20.898,20.898 -11.542,0 -20.898,-9.356 -20.898,-20.898 0,-11.542 9.356,-20.898 20.898,-20.898 z" />

			<path
   style="fill:#ffffff"
   id="path941"
   fill="#ffffff"
   data-old_color="#000000"
   class="active-path"
   data-original="#000000"
   d="m 88.325,382.159 c -0.185,0.003 -0.369,0.008 -0.553,0.013 H 58.514 c -31.439,-0.871 -57.631,23.91 -58.502,55.349 -0.005,0.184 -0.009,0.369 -0.013,0.553 v 8.359 c 0,5.747 5.747,8.882 11.494,8.882 h 123.298 c 5.747,0 11.494,-3.135 11.494,-8.882 v -8.359 c -0.564,-31.446 -26.514,-56.48 -57.96,-55.915 z m -66.382,52.257 c 1.045,-15.673 17.241,-31.347 36.571,-31.347 h 29.257 c 19.331,0 35.527,15.673 36.571,31.347 z" />

			<path
   style="fill:#ffffff"
   id="path943"
   fill="#ffffff"
   data-old_color="#000000"
   class="active-path"
   data-original="#000000"
   d="m 344.816,333.584 c 0,23.083 18.713,41.796 41.796,41.796 23.083,0 41.796,-18.713 41.796,-41.796 0,-23.083 -18.713,-41.796 -41.796,-41.796 -23.083,0 -41.796,18.712 -41.796,41.796 z m 62.694,0 c 0,11.542 -9.356,20.898 -20.898,20.898 -11.542,0 -20.898,-9.356 -20.898,-20.898 0,-11.542 9.356,-20.898 20.898,-20.898 11.542,0 20.898,9.356 20.898,20.898 z" />

			<path
   style="fill:#ffffff"
   id="path945"
   fill="#ffffff"
   data-old_color="#000000"
   class="active-path"
   data-original="#000000"
   d="m 401.794,382.159 c -0.185,0.003 -0.369,0.008 -0.553,0.013 h -29.257 c -31.439,-0.871 -57.631,23.91 -58.502,55.349 -0.005,0.184 -0.009,0.369 -0.013,0.553 v 8.359 c 0,5.747 5.747,8.882 11.494,8.882 h 123.298 c 5.747,0 11.494,-3.135 11.494,-8.882 v -8.359 c -0.565,-31.446 -26.515,-56.48 -57.961,-55.915 z m -66.382,52.257 c 1.045,-15.673 17.241,-31.347 36.571,-31.347 h 29.257 c 19.331,0 35.527,15.673 36.571,31.347 z" />

		</g>

	</g>

</g>
  </g>
</svg>
