<?xml version="1.0" encoding="UTF-8" standalone="no"?>
<svg
   xmlns:dc="http://purl.org/dc/elements/1.1/"
   xmlns:cc="http://creativecommons.org/ns#"
   xmlns:rdf="http://www.w3.org/1999/02/22-rdf-syntax-ns#"
   xmlns:svg="http://www.w3.org/2000/svg"
   xmlns="http://www.w3.org/2000/svg"
   xmlns:sodipodi="http://sodipodi.sourceforge.net/DTD/sodipodi-0.dtd"
   xmlns:inkscape="http://www.inkscape.org/namespaces/inkscape"
   width="50"
   height="50"
   viewBox="0 0 13.229167 13.229167"
   version="1.1"
   id="svg8"
   inkscape:version="1.0 (4035a4fb49, 2020-05-01)"
   sodipodi:docname="constellation.svg">
  <defs
     id="defs2" />
  <sodipodi:namedview
     id="base"
     pagecolor="#ffffff"
     bordercolor="#666666"
     borderopacity="1.0"
     inkscape:pageopacity="0.0"
     inkscape:pageshadow="2"
     inkscape:zoom="10.14"
     inkscape:cx="25"
     inkscape:cy="25"
     inkscape:document-units="px"
     inkscape:current-layer="g2244"
     inkscape:document-rotation="0"
     showgrid="false"
     units="px"
     inkscape:window-width="1280"
     inkscape:window-height="697"
     inkscape:window-x="1358"
     inkscape:window-y="-8"
     inkscape:window-maximized="1" />
  <metadata
     id="metadata5">
    <rdf:RDF>
      <cc:Work
         rdf:about="">
        <dc:format>image/svg+xml</dc:format>
        <dc:type
           rdf:resource="http://purl.org/dc/dcmitype/StillImage" />
        <dc:title></dc:title>
      </cc:Work>
    </rdf:RDF>
  </metadata>
  <g
     inkscape:groupmode="layer"
     id="layer2"
     inkscape:label="bckg">
    <circle
       style="fill:#28bcc3;fill-opacity:1;stroke-width:0.279257"
       id="path57"
       cx="6.6145835"
       cy="6.6145835"
       r="6.6145835" />
  </g>
  <g
     inkscape:groupmode="layer"
     id="layer3"
     inkscape:label="group">
    <g
       style="fill:#000000"
       transform="matrix(0.26458334,0,0,0.26458334,-78.413223,-58.833429)"
       id="g2246">
      <g
         transform="matrix(0.07173913,0,0,0.06445312,302.99971,230.86256)"
         style="fill:#ffffff"
         id="g2244"
         fill="#c193dc">
        <path
           id="path2232"
           data-old_color="#C193DC"
           style="fill:#ffffff"
           class="hovered-path active-path"
           data-original="#C193DC"
           d="m 456,40 c -12.309,0 -22.906,7.455 -27.526,18.084 L 264.828,21.718 C 261.224,9.193 249.669,0 236,0 c -16.542,0 -30,13.458 -30,30 0,13.036 8.361,24.152 20,28.28 v 109.44 c -11.639,4.128 -20,15.243 -20,28.28 0,4.604 1.045,8.967 2.906,12.869 l -39.153,31.322 c -0.292,0.234 -0.565,0.483 -0.824,0.742 C 165.012,239.054 160.627,238 156,238 c -16.542,0 -30,13.458 -30,30 0,13.036 8.361,24.152 20,28.28 v 51.44 c -11.639,4.128 -20,15.243 -20,28.28 0,10.469 5.394,19.697 13.544,25.066 L 108.612,454.79 C 104.775,453.004 100.504,452 96,452 c -16.542,0 -30,13.458 -30,30 0,16.542 13.458,30 30,30 16.542,0 30,-13.458 30,-30 0,-4.627 -1.054,-9.011 -2.933,-12.928 0.608,-0.608 1.15,-1.301 1.599,-2.082 l 35.269,-61.256 C 174.623,403.8 186,391.207 186,376 c 0,-13.036 -8.361,-24.152 -20,-28.28 v -51.44 c 11.639,-4.128 20,-15.243 20,-28.28 0,-4.603 -1.045,-8.967 -2.906,-12.869 l 39.153,-31.322 c 0.292,-0.234 0.565,-0.483 0.824,-0.742 3.917,1.879 8.302,2.933 12.929,2.933 11.594,0 21.666,-6.616 26.658,-16.267 L 386.82,262.946 C 389.963,276.148 401.849,286 416,286 c 16.542,0 30,-13.458 30,-30 0,-12.131 -7.242,-22.596 -17.626,-27.318 L 463.922,98.931 C 476.631,95.446 486,83.8 486,70 486,53.458 472.542,40 456,40 Z M 96,492 c -5.514,0 -10,-4.486 -10,-10 0,-5.514 4.486,-10 10,-10 5.514,0 10,4.486 10,10 0,5.514 -4.486,10 -10,10 z M 389.342,242.267 265.18,189.055 c -2.364,-9.932 -9.675,-17.963 -19.179,-21.334 V 58.28 c 7.86,-2.788 14.222,-8.762 17.526,-16.364 l 163.646,36.366 c 2.441,8.484 8.529,15.432 16.455,19.036 L 408.08,227.069 c -8.154,2.235 -14.927,7.829 -18.738,15.198 z M 236,20 c 5.514,0 10,4.486 10,10 0,5.514 -4.486,10 -10,10 -5.514,0 -10,-4.486 -10,-10 0,-5.514 4.486,-10 10,-10 z m -80,366 c -5.514,0 -10,-4.486 -10,-10 0,-5.514 4.486,-10 10,-10 5.514,0 10,4.486 10,10 0,5.514 -4.486,10 -10,10 z m 0,-108 c -5.514,0 -10,-4.486 -10,-10 0,-5.514 4.486,-10 10,-10 5.514,0 10,4.486 10,10 0,5.514 -4.486,10 -10,10 z m 80,-72 c -5.514,0 -10,-4.486 -10,-10 0,-5.514 4.486,-10 10,-10 5.503,0 9.98,4.467 9.998,9.966 0,0.012 0.002,0.024 0.002,0.036 -0.001,5.514 -4.487,9.998 -10,9.998 z m 180,60 c -5.499,0 -9.975,-4.463 -9.998,-9.957 0,-0.015 -0.002,-0.03 -0.002,-0.046 0.002,-5.507 4.478,-9.987 9.982,-9.996 0.008,0 0.015,0.001 0.023,0.001 0.008,0 0.016,-0.001 0.023,-0.001 5.5,0.016 9.971,4.494 9.971,9.999 10e-4,5.514 -4.485,10 -9.999,10 z M 456,80 c -5.514,0 -10,-4.486 -10,-10 0,-5.514 4.486,-10 10,-10 5.514,0 10,4.486 10,10 0,5.514 -4.486,10 -10,10 z" />
        <path
           id="path2234"
           data-old_color="#C193DC"
           style="fill:#ffffff"
           class="hovered-path active-path"
           data-original="#C193DC"
           d="m 456,346 c -16.542,0 -30,-13.458 -30,-30 0,-5.523 -4.478,-10 -10,-10 -5.522,0 -10,4.477 -10,10 0,16.542 -13.458,30 -30,30 -5.522,0 -10,4.477 -10,10 0,5.523 4.478,10 10,10 16.542,0 30,13.458 30,30 0,5.523 4.478,10 10,10 5.522,0 10,-4.477 10,-10 0,-16.542 13.458,-30 30,-30 5.522,0 10,-4.477 10,-10 0,-5.523 -4.478,-10 -10,-10 z m -40,20.035 c -2.854,-3.8 -6.235,-7.181 -10.035,-10.035 3.8,-2.853 7.181,-6.235 10.035,-10.035 2.854,3.8 6.235,7.181 10.035,10.035 -3.8,2.853 -7.181,6.235 -10.035,10.035 z" />
        <path
           id="path2236"
           data-old_color="#C193DC"
           style="fill:#ffffff"
           class="hovered-path active-path"
           data-original="#C193DC"
           d="m 96,106 c 16.542,0 30,13.458 30,30 0,5.523 4.477,10 10,10 5.523,0 10,-4.477 10,-10 0,-16.542 13.458,-30 30,-30 5.523,0 10,-4.477 10,-10 0,-5.523 -4.477,-10 -10,-10 -16.542,0 -30,-13.458 -30,-30 0,-5.523 -4.477,-10 -10,-10 -5.523,0 -10,4.477 -10,10 0,16.542 -13.458,30 -30,30 -5.523,0 -10,4.477 -10,10 0,5.523 4.477,10 10,10 z m 40,-20.035 c 2.854,3.8 6.235,7.181 10.035,10.035 -3.8,2.854 -7.181,6.235 -10.035,10.035 -2.854,-3.8 -6.235,-7.181 -10.035,-10.035 3.8,-2.854 7.181,-6.235 10.035,-10.035 z" />
        <path
           id="path2238"
           data-old_color="#C193DC"
           style="fill:#ffffff"
           class="hovered-path active-path"
           data-original="#C193DC"
           d="m 86,176 c 0,-16.542 -13.458,-30 -30,-30 -16.542,0 -30,13.458 -30,30 0,16.542 13.458,30 30,30 16.542,0 30,-13.458 30,-30 z m -30,10 c -5.514,0 -10,-4.486 -10,-10 0,-5.514 4.486,-10 10,-10 5.514,0 10,4.486 10,10 0,5.514 -4.486,10 -10,10 z" />
        <path
           id="path2240"
           data-old_color="#C193DC"
           style="fill:#ffffff"
           class="hovered-path active-path"
           data-original="#C193DC"
           d="m 276,296 c 0,-16.542 -13.458,-30 -30,-30 -16.542,0 -30,13.458 -30,30 0,16.542 13.458,30 30,30 16.542,0 30,-13.458 30,-30 z m -30,10 c -5.514,0 -10,-4.486 -10,-10 0,-5.514 4.486,-10 10,-10 5.514,0 10,4.486 10,10 0,5.514 -4.486,10 -10,10 z" />
        <path
           id="path2242"
           data-old_color="#C193DC"
           style="fill:#ffffff"
           class="hovered-path active-path"
           data-original="#C193DC"
           d="m 296,326 c -22.056,0 -40,17.944 -40,40 0,22.056 17.944,40 40,40 22.056,0 40,-17.944 40,-40 0,-22.056 -17.944,-40 -40,-40 z m 0,60 c -11.028,0 -20,-8.972 -20,-20 0,-11.028 8.972,-20 20,-20 11.028,0 20,8.972 20,20 0,11.028 -8.972,20 -20,20 z" />
      </g>
    </g>
  </g>
</svg>
