<svg xmlns="http://www.w3.org/2000/svg" viewBox="0 0 13.229 13.229" height="50" width="50"><circle r="6.615" cy="6.615" cx="6.615" fill="#0b4796" opacity=".995"/><g fill="#fff"><path d="M10.41 2.931a.575.575 0 00-.522.308l-3.106-.62c-.068-.213-.288-.37-.547-.37-.314 0-.57.23-.57.512 0 .222.16.411.38.482v1.866c-.22.07-.38.26-.38.482 0 .079.02.153.056.22l-.743.534a.186.186 0 00-.016.013.62.62 0 00-.246-.05c-.313 0-.569.23-.569.511 0 .223.159.412.38.482v.878c-.221.07-.38.26-.38.482a.5.5 0 00.257.427l-.587.917a.62.62 0 00-.24-.048c-.313 0-.569.23-.569.512 0 .282.256.511.57.511.314 0 .57-.23.57-.511a.466.466 0 00-.057-.22.173.173 0 00.03-.036l.67-1.045c.279-.033.495-.248.495-.507 0-.222-.159-.412-.38-.482V7.3c.221-.07.38-.26.38-.482a.466.466 0 00-.055-.22l.743-.533a.186.186 0 00.016-.013.62.62 0 00.245.05.58.58 0 00.506-.277l2.357.907c.06.225.285.393.554.393.314 0 .569-.23.569-.511a.513.513 0 00-.335-.466l.675-2.213c.241-.06.42-.258.42-.493 0-.282-.256-.512-.57-.512zM3.579 10.64c-.105 0-.19-.076-.19-.17 0-.094.085-.17.19-.17.104 0 .19.076.19.17 0 .094-.086.17-.19.17zM9.146 6.38l-2.357-.907a.537.537 0 00-.364-.364V3.243c.149-.048.27-.15.332-.28l3.107.62a.534.534 0 00.312.326L9.5 6.12a.563.563 0 00-.355.26zM6.235 2.59c.105 0 .19.077.19.17 0 .095-.085.171-.19.171s-.19-.076-.19-.17c0-.094.085-.171.19-.171zM4.716 8.832c-.104 0-.19-.077-.19-.171 0-.094.086-.17.19-.17.105 0 .19.076.19.17 0 .094-.085.17-.19.17zm0-1.842c-.104 0-.19-.077-.19-.17 0-.095.086-.171.19-.171.105 0 .19.076.19.17 0 .094-.085.17-.19.17zm1.519-1.228c-.105 0-.19-.077-.19-.17 0-.095.085-.171.19-.171.104 0 .19.076.19.17 0 .094-.085.17-.19.17zm3.417 1.023c-.105 0-.19-.076-.19-.17 0-.094.085-.17.19-.17.104 0 .19.076.19.17 0 .094-.086.17-.19.17zm.759-3.172c-.105 0-.19-.076-.19-.17 0-.094.085-.17.19-.17.104 0 .19.076.19.17 0 .094-.086.17-.19.17zM10.41 8.15c-.313 0-.569-.23-.569-.512 0-.094-.085-.17-.19-.17-.104 0-.19.076-.19.17 0 .282-.255.511-.569.511-.105 0-.19.077-.19.17 0 .095.085.171.19.171.314 0 .57.23.57.512 0 .094.085.17.19.17.104 0 .19-.076.19-.17 0-.282.255-.512.569-.512.105 0 .19-.076.19-.17 0-.094-.085-.17-.19-.17zm-.758.341a.915.915 0 00-.19-.171.915.915 0 00.19-.171.915.915 0 00.19.17.915.915 0 00-.19.172z" data-original="#C193DC" class="hovered-path active-path" data-old_color="#C193DC"/><path d="M3.578 4.057c.314 0 .57.23.57.511 0 .094.084.17.189.17s.19-.076.19-.17c0-.282.255-.511.57-.511.104 0 .189-.077.189-.17 0-.095-.085-.171-.19-.171-.314 0-.57-.23-.57-.512 0-.094-.084-.17-.19-.17-.104 0-.189.076-.189.17 0 .282-.255.512-.57.512-.104 0-.19.076-.19.17 0 .094.086.17.19.17zm.759-.342a.915.915 0 00.19.171.915.915 0 00-.19.171.915.915 0 00-.19-.17.915.915 0 00.19-.172zM3.388 5.25c0-.282-.256-.511-.57-.511-.314 0-.569.23-.569.511 0 .282.255.512.57.512.313 0 .569-.23.569-.512zm-.57.17c-.104 0-.19-.076-.19-.17 0-.094.086-.17.19-.17.105 0 .19.076.19.17 0 .094-.085.17-.19.17zM6.994 7.297c0-.282-.255-.512-.57-.512-.313 0-.569.23-.569.512 0 .282.256.511.57.511.314 0 .57-.23.57-.511zm-.57.17c-.104 0-.189-.076-.189-.17 0-.094.085-.17.19-.17.104 0 .19.076.19.17 0 .094-.086.17-.19.17zM7.374 7.808c-.419 0-.76.306-.76.682 0 .377.341.683.76.683.418 0 .76-.306.76-.683 0-.376-.342-.682-.76-.682zm0 1.024c-.21 0-.38-.153-.38-.342 0-.188.17-.34.38-.34s.38.152.38.34c0 .189-.17.342-.38.342z" data-original="#C193DC" class="hovered-path active-path" data-old_color="#C193DC"/></g></svg>