<?xml version="1.0"?>
<svg xmlns="http://www.w3.org/2000/svg" xmlns:xlink="http://www.w3.org/1999/xlink" version="1.1" id="Capa_1" x="0px" y="0px" viewBox="0 0 299 299" style="enable-background:new 0 0 299 299;" xml:space="preserve" width="512px" height="512px" class=""><g><path d="M219.5,75c11.046,0,20-8.954,20-20V20c0-11.046-8.954-20-20-20h-140c-11.046,0-20,8.954-20,20v259c0,11.046,8.954,20,20,20  h140c11.046,0,20-8.954,20-20v-35c0-11.046-8.954-20-20-20s-20,8.954-20,20v15h-100v-89.5h80c11.046,0,20-8.954,20-20  s-8.954-20-20-20h-80V40h100v15C199.5,66.046,208.454,75,219.5,75z" data-original="#000000" class="active-path" data-old_color="#000000" fill="#C7EBFF"/></g> </svg>
