<svg xmlns="http://www.w3.org/2000/svg" viewBox="0 0 13.229 13.229" height="50" width="50"><circle r="6.615" cy="6.615" cx="6.615" fill="#0b4796"/><g fill="#fff"><path d="M9.286 10.982a.174.174 0 00.174-.173v-.575c0-.222-.349-.222-.349 0v.402H8.43V7.813a.174.174 0 00-.175-.173H7.31c-.224 0-.224.346 0 .346h.772v2.65H5.148v-2.65h.77c.225 0 .225-.346 0-.346h-.944a.174.174 0 00-.175.173v2.823h-.681V7.038H9.11v1.798c0 .222.35.222.35 0V7.035a.632.632 0 00.561-.66.622.622 0 00-.558-.615v-.528a1.2 1.2 0 00-.276-.76.666.666 0 10-1.236-.348c0 .487.543.815.98.584a.852.852 0 01.183.524v.525H8.25a1.634 1.634 0 00-.983-1.34c.32-.213.53-.574.53-.984 0-.653-.537-1.185-1.196-1.185-.66 0-1.196.532-1.196 1.185 0 .415.216.78.542.992a1.633 1.633 0 00-.966 1.332h-.862v-.525c0-.19.066-.375.183-.524.437.23.98-.096.98-.585a.666.666 0 10-1.236.348 1.2 1.2 0 00-.276.761v.528a.632.632 0 00-.562.659c0 .32.247.584.562.615v3.775c0 .095.078.173.174.173h5.343zM8.62 4.439a.318.318 0 01-.32-.316c0-.175.144-.317.32-.317.176 0 .32.142.32.317a.318.318 0 01-.32.316zm-4.007-.633c.176 0 .32.142.32.317a.318.318 0 01-.32.316.318.318 0 01-.32-.316c0-.175.144-.317.32-.317zm1.14-.373c0-.463.38-.84.847-.84.467 0 .847.377.847.84 0 .463-.38.84-.847.84a.844.844 0 01-.847-.84zm1.974 1.825c.09.15.15.318.172.499H5.33c.021-.169.075-.327.155-.47a1.294 1.294 0 011.13-.646c.454 0 .88.23 1.112.617zM3.832 6.692c-.36 0-.366-.59 0-.59h5.566c.365 0 .359.59 0 .59z" data-original="#000000" class="active-path" data-old_color="#000000"/><path d="M6.76 7.717a.177.177 0 00-.242-.047.174.174 0 00-.048.24.174.174 0 00.29-.192zM9.451 9.464a.174.174 0 00-.322.132c.036.087.14.13.228.094a.174.174 0 00.094-.226z" data-original="#000000" class="active-path" data-old_color="#000000"/></g></svg>