<?xml version="1.0" encoding="UTF-8" standalone="no"?>
<svg
   xmlns:dc="http://purl.org/dc/elements/1.1/"
   xmlns:cc="http://creativecommons.org/ns#"
   xmlns:rdf="http://www.w3.org/1999/02/22-rdf-syntax-ns#"
   xmlns:svg="http://www.w3.org/2000/svg"
   xmlns="http://www.w3.org/2000/svg"
   xmlns:sodipodi="http://sodipodi.sourceforge.net/DTD/sodipodi-0.dtd"
   xmlns:inkscape="http://www.inkscape.org/namespaces/inkscape"
   width="50"
   height="50"
   viewBox="0 0 13.229167 13.229167"
   version="1.1"
   id="svg8"
   inkscape:version="1.0 (4035a4fb49, 2020-05-01)"
   sodipodi:docname="speech.svg">
  <defs
     id="defs2" />
  <sodipodi:namedview
     id="base"
     pagecolor="#ffffff"
     bordercolor="#666666"
     borderopacity="1.0"
     inkscape:pageopacity="0.0"
     inkscape:pageshadow="2"
     inkscape:zoom="10.14"
     inkscape:cx="25"
     inkscape:cy="25"
     inkscape:document-units="px"
     inkscape:current-layer="layer2"
     inkscape:document-rotation="0"
     showgrid="false"
     units="px"
     inkscape:window-width="1280"
     inkscape:window-height="697"
     inkscape:window-x="1358"
     inkscape:window-y="-8"
     inkscape:window-maximized="1" />
  <metadata
     id="metadata5">
    <rdf:RDF>
      <cc:Work
         rdf:about="">
        <dc:format>image/svg+xml</dc:format>
        <dc:type
           rdf:resource="http://purl.org/dc/dcmitype/StillImage" />
        <dc:title></dc:title>
      </cc:Work>
    </rdf:RDF>
  </metadata>
  <g
     inkscape:groupmode="layer"
     id="layer2"
     inkscape:label="bckg">
    <circle
       style="fill:#28bcc3;fill-opacity:1;stroke-width:0.279257"
       id="path57"
       cx="6.6145835"
       cy="6.6145835"
       r="6.6145835" />
    <g
       id="g1580"
       transform="matrix(0.01744219,0,0,0.01729447,2.2103433,2.2476347)"
       style="fill:#ffffff">
      <path
         id="path1574"
         fill="#ffffff"
         data-old_color="#000000"
         class="active-path"
         data-original="#000000"
         d="m 405.652,505.011 c 5.522,0 10,-4.478 10,-10 v -33.222 c 0,-12.84 -20,-12.858 -20,0 v 23.222 H 356.579 V 321.818 c 0,-5.522 -4.478,-10 -10,-10 h -54.237 c -12.84,0 -12.858,20 0,20 h 44.237 V 485.01 H 168.432 V 331.818 h 44.182 c 12.84,0 12.858,-20 0,-20 h -54.182 c -5.522,0 -10,4.478 -10,10 V 485.01 H 109.359 V 276.966 h 286.294 v 103.982 c 0,12.84 20,12.858 20,0 V 276.786 c 19.349,-1.936 32.889,-19.064 32.206,-38.097 0,-18.446 -14.025,-33.674 -31.971,-35.589 v -30.511 c 0,-16.009 -5.707,-31.711 -15.833,-44.021 15.563,-25.069 -3.191,-58.448 -32.565,-58.448 -21.122,0 -38.307,17.185 -38.307,38.307 0,28.252 31.127,47.176 56.215,33.848 6.713,8.598 10.489,19.351 10.489,30.315 v 30.304 h -49.65 c -3.313,-34.768 -25.609,-64.08 -56.379,-77.43 18.306,-12.321 30.373,-33.231 30.373,-56.908 C 320.232,30.754 289.479,0 251.678,0 c -37.801,0 -68.554,30.754 -68.554,68.555 0,23.962 12.367,45.079 31.044,57.339 -30.261,13.543 -52.117,42.602 -55.395,76.999 h -49.415 v -30.304 c 0,-10.964 3.776,-21.717 10.489,-30.315 25.081,13.324 56.215,-5.588 56.215,-33.848 0,-21.122 -17.185,-38.307 -38.307,-38.307 -29.365,0 -48.132,33.372 -32.565,58.448 -10.126,12.311 -15.833,28.013 -15.833,44.021 v 30.484 c -19.349,1.936 -32.889,19.064 -32.206,38.097 0,18.527 14.147,33.809 32.206,35.616 V 495.01 c 0,5.522 4.478,10 10,10 H 405.652 Z M 367.49,126.732 c -10.095,0 -18.307,-8.212 -18.307,-18.307 0,-10.095 8.212,-18.307 18.307,-18.307 10.095,0 18.307,8.212 18.307,18.307 0,10.095 -8.212,18.307 -18.307,18.307 z M 137.756,90.119 c 10.095,0 18.307,8.212 18.307,18.307 0,10.095 -8.212,18.307 -18.307,18.307 -10.095,0 -18.307,-8.212 -18.307,-18.307 0,-10.095 8.212,-18.307 18.307,-18.307 z M 203.124,68.555 C 203.124,41.782 224.905,20 251.678,20 c 26.773,0 48.555,21.781 48.555,48.555 0,26.772 -21.781,48.554 -48.555,48.554 -26.773,-10e-4 -48.554,-21.782 -48.554,-48.554 z M 316.27,174.051 c 5.148,8.64 8.59,18.409 9.857,28.841 H 178.884 c 1.183,-9.737 4.26,-18.897 8.851,-27.1 13.048,-23.312 38.049,-37.383 64.765,-37.383 h 0.043 c 25.992,0 50.422,13.313 63.727,35.642 z M 92.948,256.966 c -20.589,0 -20.967,-34.073 0,-34.073 h 319.114 c 20.964,0 20.596,34.073 0,34.073 z"
         style="fill:#ffffff" />
      <path
         id="path1576"
         fill="#ffffff"
         data-old_color="#000000"
         class="active-path"
         data-original="#000000"
         d="m 260.822,316.265 c -3.047,-4.526 -9.323,-5.775 -13.87,-2.76 -4.546,3.015 -5.764,9.334 -2.76,13.859 3.013,4.539 9.332,5.789 13.86,2.771 4.526,-3.017 5.789,-9.347 2.77,-13.87 z"
         style="fill:#ffffff" />
      <path
         id="path1578"
         fill="#ffffff"
         data-old_color="#000000"
         class="active-path"
         data-original="#000000"
         d="m 415.122,417.265 c -2.065,-5.042 -8.04,-7.488 -13.06,-5.41 -5.037,2.085 -7.496,8.022 -5.41,13.06 2.082,5.029 8.03,7.499 13.06,5.41 5.023,-2.087 7.507,-8.031 5.41,-13.06 z"
         style="fill:#ffffff" />
    </g>
  </g>
  <g
     inkscape:label="speech"
     id="layer4"
     inkscape:groupmode="layer" />
</svg>
